<svg width="1200" height="720" viewBox="0 0 1200 720" fill="none" xmlns="http://www.w3.org/2000/svg">
  <rect width="1200" height="720" fill="#0B1120"/>
  <rect x="72" y="72" width="1056" height="576" rx="28" fill="#F8FAFC"/>
  <rect x="112" y="120" width="348" height="480" rx="24" fill="#FFFFFF" stroke="#CBD5E1" stroke-width="4"/>
  <rect x="148" y="158" width="180" height="18" rx="9" fill="#0F172A"/>
  <rect x="148" y="214" width="260" height="42" rx="12" fill="#F1F5F9"/>
  <rect x="172" y="228" width="132" height="14" rx="7" fill="#64748B"/>
  <rect x="148" y="292" width="120" height="14" rx="7" fill="#2563EB"/>
  <rect x="148" y="330" width="272" height="54" rx="14" fill="#DBEAFE"/>
  <rect x="148" y="404" width="272" height="54" rx="14" fill="#DCFCE7"/>
  <rect x="148" y="478" width="272" height="54" rx="14" fill="#FFEDD5"/>
  <rect x="536" y="126" width="212" height="130" rx="20" fill="#E2E8F0"/>
  <rect x="824" y="126" width="212" height="130" rx="20" fill="#E2E8F0"/>
  <rect x="536" y="322" width="212" height="130" rx="20" fill="#E2E8F0"/>
  <rect x="824" y="322" width="212" height="130" rx="20" fill="#E2E8F0"/>
  <rect x="536" y="518" width="212" height="58" rx="20" fill="#E2E8F0"/>
  <path d="M460 358C508 358 508 190 536 190" stroke="#2563EB" stroke-width="8" stroke-linecap="round"/>
  <path d="M460 430C520 430 520 386 536 386" stroke="#22C55E" stroke-width="8" stroke-linecap="round"/>
  <path d="M460 504C626 504 626 386 824 386" stroke="#F97316" stroke-width="8" stroke-linecap="round"/>
  <text x="148" y="570" fill="#0F172A" font-family="Arial, sans-serif" font-size="34" font-weight="700">ComponentsNav</text>
  <text x="536" y="624" fill="#64748B" font-family="Arial, sans-serif" font-size="24">Search, filter, jump, return</text>
</svg>
