<svg width="1200" height="720" viewBox="0 0 1200 720" fill="none" xmlns="http://www.w3.org/2000/svg">
  <rect width="1200" height="720" fill="#111827"/>
  <rect x="72" y="72" width="1056" height="576" rx="28" fill="#F8FAFC"/>
  <rect x="116" y="128" width="456" height="392" rx="24" fill="#E2E8F0"/>
  <rect x="160" y="176" width="188" height="18" rx="9" fill="#0F172A"/>
  <rect x="160" y="224" width="328" height="14" rx="7" fill="#64748B"/>
  <rect x="160" y="260" width="280" height="14" rx="7" fill="#94A3B8"/>
  <rect x="160" y="328" width="96" height="36" rx="18" fill="#22C55E"/>
  <rect x="272" y="328" width="112" height="36" rx="18" fill="#2563EB"/>
  <rect x="400" y="328" width="104" height="36" rx="18" fill="#F97316"/>
  <rect x="160" y="416" width="344" height="56" rx="14" fill="#CBD5E1"/>
  <rect x="628" y="154" width="396" height="456" rx="26" fill="#FFFFFF" stroke="#CBD5E1" stroke-width="4"/>
  <rect x="668" y="196" width="172" height="20" rx="10" fill="#0F172A"/>
  <rect x="668" y="246" width="276" height="14" rx="7" fill="#64748B"/>
  <rect x="668" y="282" width="224" height="14" rx="7" fill="#94A3B8"/>
  <rect x="668" y="346" width="108" height="36" rx="18" fill="#DBEAFE"/>
  <rect x="796" y="346" width="128" height="36" rx="18" fill="#DCFCE7"/>
  <rect x="668" y="430" width="316" height="104" rx="18" fill="#F1F5F9"/>
  <rect x="696" y="462" width="240" height="12" rx="6" fill="#64748B"/>
  <rect x="696" y="496" width="184" height="12" rx="6" fill="#94A3B8"/>
  <path d="M572 322H628" stroke="#2563EB" stroke-width="8" stroke-linecap="round"/>
  <text x="116" y="590" fill="#0F172A" font-family="Arial, sans-serif" font-size="34" font-weight="700">ComponentCard</text>
  <text x="116" y="624" fill="#64748B" font-family="Arial, sans-serif" font-size="24">Live component context on canvas</text>
</svg>
