<svg width="1200" height="720" viewBox="0 0 1200 720" fill="none" xmlns="http://www.w3.org/2000/svg">
  <rect width="1200" height="720" fill="#111827"/>
  <rect x="72" y="72" width="1056" height="576" rx="28" fill="#F8FAFC"/>
  <rect x="116" y="132" width="296" height="456" rx="24" fill="#FFFFFF" stroke="#CBD5E1" stroke-width="4"/>
  <rect x="152" y="172" width="164" height="18" rx="9" fill="#0F172A"/>
  <rect x="152" y="226" width="212" height="42" rx="12" fill="#F1F5F9"/>
  <rect x="176" y="240" width="116" height="14" rx="7" fill="#64748B"/>
  <rect x="152" y="314" width="104" height="36" rx="18" fill="#DBEAFE"/>
  <rect x="268" y="314" width="96" height="36" rx="18" fill="#DCFCE7"/>
  <rect x="152" y="394" width="212" height="56" rx="14" fill="#E2E8F0"/>
  <rect x="152" y="472" width="212" height="56" rx="14" fill="#E2E8F0"/>
  <rect x="516" y="142" width="152" height="96" rx="18" fill="#DBEAFE"/>
  <rect x="736" y="142" width="152" height="96" rx="18" fill="#E2E8F0"/>
  <rect x="956" y="142" width="88" height="96" rx="18" fill="#E2E8F0"/>
  <rect x="516" y="310" width="152" height="96" rx="18" fill="#DCFCE7"/>
  <rect x="736" y="310" width="152" height="96" rx="18" fill="#DBEAFE"/>
  <rect x="956" y="310" width="88" height="96" rx="18" fill="#E2E8F0"/>
  <rect x="516" y="478" width="152" height="96" rx="18" fill="#FFEDD5"/>
  <rect x="736" y="478" width="152" height="96" rx="18" fill="#DCFCE7"/>
  <path d="M592 114V602" stroke="#2563EB" stroke-width="4" stroke-dasharray="12 14"/>
  <path d="M812 114V602" stroke="#22C55E" stroke-width="4" stroke-dasharray="12 14"/>
  <path d="M412 422C456 422 472 190 516 190" stroke="#2563EB" stroke-width="8" stroke-linecap="round"/>
  <path d="M412 422C480 422 488 358 516 358" stroke="#22C55E" stroke-width="8" stroke-linecap="round"/>
  <path d="M412 500C470 500 480 526 516 526" stroke="#F97316" stroke-width="8" stroke-linecap="round"/>
  <text x="152" y="570" fill="#0F172A" font-family="Arial, sans-serif" font-size="34" font-weight="700">Smart Selection</text>
  <text x="516" y="626" fill="#64748B" font-family="Arial, sans-serif" font-size="24">Trait-based layer targeting</text>
</svg>
