<svg xmlns="http://www.w3.org/2000/svg" width="220" height="220" viewBox="0 0 220 220" fill="none"><path d="M54.52 43.58C83.32 27.16 114.15 31.79 138.36 57.92C143 45.08 150.88 37.47 165.74 41.8C160.74 50.33 156 59.01 150.74 67.42C148.74 70.7 148.5 73.12 150.15 76.81C165.83 111.86 163.53 145.57 141.91 177.62C140.25 180.1 138.48 182.5 136.2 185.72L109.44 139.41L82.71 185.8C55 137.5 27.5 89.71 0 41.86C11.67 38.66 18 41.2 23.68 51.19C42.3467 83.77 61.0133 116.35 79.68 148.93C80.58 150.51 81.55 152.05 82.77 154.08C88.43 144.24 94 134.85 99.15 125.23C99.87 123.89 98.95 121.17 98.02 119.53C84.0467 94.99 69.99 70.48 55.85 46C55.45 45.32 55.07 44.59 54.52 43.58ZM109.52 107.67C114.37 99.17 118.77 91.4 123.23 83.67C130.41 71.24 130.57 71.08 119.48 61.74C107.26 51.47 93.36 47.45 77 51.21L109.52 107.67ZM138.65 88.56C131.9 100.27 125.85 110.73 120 121.27C119.678 121.892 119.49 122.575 119.449 123.274C119.407 123.974 119.513 124.674 119.76 125.33C125.23 135.16 130.89 144.86 136.98 155.43C146.25 133.15 146.62 111.62 138.61 88.56H138.65Z" fill="white"></path><path d="M220 41.0001C213.05 52.8301 206.75 63.8701 200.1 74.7001C197.81 78.4301 193.1 79.0001 189.55 76.7001C185.87 74.3201 184.85 70.4601 187.13 66.3001C190.79 59.6201 194.13 52.6801 198.63 46.6001C200.69 43.8101 204.95 42.1601 208.53 41.1701C211.76 40.2801 215.42 41.0001 220 41.0001Z" fill="white"></path><style>@media (prefers-color-scheme: light) { :root { filter: contrast(1) brightness(0.1); } }
@media (prefers-color-scheme: dark) { :root { filter: none; } }
</style></svg>