<svg xmlns="http://www.w3.org/2000/svg" version="1.1" xmlns:xlink="http://www.w3.org/1999/xlink" xmlns:svgjs="http://svgjs.com/svgjs" width="220" height="220"><svg width="220" height="220" viewBox="0 0 220 220" fill="none" xmlns="http://www.w3.org/2000/svg">
<mask id="SvgjsMask1000" style="mask-type:luminance" maskUnits="userSpaceOnUse" x="0" y="34" width="220" height="152">
<path d="M220 34H0V185.8H220V34Z" fill="white"></path>
</mask>
<g mask="url(#mask0_541_8677)">
<path d="M54.52 43.5802C83.32 27.1602 114.15 31.7902 138.36 57.9202C143 45.0802 150.88 37.4702 165.74 41.8002C160.74 50.3302 156 59.0102 150.74 67.4202C148.74 70.7002 148.5 73.1202 150.15 76.8102C165.83 111.86 163.53 145.57 141.91 177.62C140.25 180.1 138.48 182.5 136.2 185.72L109.44 139.41L82.71 185.8C55 137.5 27.5 89.7102 0 41.8602C11.67 38.6602 18 41.2002 23.68 51.1902C42.3467 83.7702 61.0133 116.35 79.68 148.93C80.58 150.51 81.55 152.05 82.77 154.08C88.43 144.24 94 134.85 99.15 125.23C99.87 123.89 98.95 121.17 98.02 119.53C84.0467 94.9902 69.99 70.4802 55.85 46.0002C55.45 45.3202 55.07 44.5902 54.52 43.5802ZM109.52 107.67C114.37 99.1702 118.77 91.4002 123.23 83.6702C130.41 71.2402 130.57 71.0802 119.48 61.7402C107.26 51.4702 93.36 47.4502 77 51.2102L109.52 107.67ZM138.65 88.5602C131.9 100.27 125.85 110.73 120 121.27C119.678 121.892 119.49 122.575 119.449 123.275C119.407 123.974 119.513 124.675 119.76 125.33C125.23 135.16 130.89 144.86 136.98 155.43C146.25 133.15 146.62 111.62 138.61 88.5602H138.65Z" fill="black"></path>
<path d="M220 41.0001C213.05 52.8301 206.75 63.8701 200.1 74.7001C197.81 78.4301 193.1 79.0001 189.55 76.7001C185.87 74.3201 184.85 70.4601 187.13 66.3001C190.79 59.6201 194.13 52.6801 198.63 46.6001C200.69 43.8101 204.95 42.1601 208.53 41.1701C211.76 40.2801 215.42 41.0001 220 41.0001Z" fill="black"></path>
</g>
</svg><style>@media (prefers-color-scheme: light) { :root { filter: none; } }
@media (prefers-color-scheme: dark) { :root { filter: invert(100%); } }
</style></svg>