<svg width="36" height="36" viewBox="0 0 36 36" fill="none" xmlns="http://www.w3.org/2000/svg">
<g clip-path="url(#clip0_516_8526)">
<path d="M18 18C18 16.4087 18.6321 14.8826 19.7574 13.7574C20.8826 12.6321 22.4087 12 24 12C25.5913 12 27.1174 12.6321 28.2426 13.7574C29.3679 14.8826 30 16.4087 30 18C30 19.5913 29.3679 21.1174 28.2426 22.2426C27.1174 23.3679 25.5913 24 24 24C22.4087 24 20.8826 23.3679 19.7574 22.2426C18.6321 21.1174 18 19.5913 18 18V18Z" fill="#1ABCFE"/>
<path d="M6 30C6 28.4087 6.63214 26.8826 7.75736 25.7574C8.88258 24.6321 10.4087 24 12 24H18V30C18 31.5913 17.3679 33.1174 16.2426 34.2426C15.1174 35.3679 13.5913 36 12 36C10.4087 36 8.88258 35.3679 7.75736 34.2426C6.63214 33.1174 6 31.5913 6 30H6Z" fill="#0ACF83"/>
<path d="M18 0V12H24C25.5913 12 27.1174 11.3679 28.2426 10.2426C29.3679 9.11742 30 7.5913 30 6C30 4.4087 29.3679 2.88258 28.2426 1.75736C27.1174 0.632141 25.5913 0 24 0L18 0Z" fill="#FF7262"/>
<path d="M6 6C6 7.5913 6.63214 9.11742 7.75736 10.2426C8.88258 11.3679 10.4087 12 12 12H18V0L12 0C10.4087 0 8.88258 0.632141 7.75736 1.75736C6.63214 2.88258 6 4.4087 6 6V6Z" fill="#F24E1E"/>
<path d="M6 18C6 19.5913 6.63214 21.1174 7.75736 22.2426C8.88258 23.3679 10.4087 24 12 24H18V12L12 12C10.4087 12 8.88258 12.6321 7.75736 13.7574C6.63214 14.8826 6 16.4087 6 18H6Z" fill="#A259FF"/>
</g>
<defs>
<clipPath id="clip0_516_8526">
<rect width="36" height="36" fill="white"/>
</clipPath>
</defs>
</svg>
