<svg width="24" height="36" viewBox="0 0 24 36" fill="none" xmlns="http://www.w3.org/2000/svg">
<g clip-path="url(#clip0_228_12048)">
<path d="M12 18C12 16.4087 12.6321 14.8826 13.7574 13.7574C14.8826 12.6321 16.4087 12 18 12C19.5913 12 21.1174 12.6321 22.2426 13.7574C23.3679 14.8826 24 16.4087 24 18C24 19.5913 23.3679 21.1174 22.2426 22.2426C21.1174 23.3679 19.5913 24 18 24C16.4087 24 14.8826 23.3679 13.7574 22.2426C12.6321 21.1174 12 19.5913 12 18Z" fill="#1ABCFE"/>
<path d="M0 30C0 28.4087 0.632141 26.8826 1.75736 25.7574C2.88258 24.6321 4.4087 24 6 24H12V30C12 31.5913 11.3679 33.1174 10.2426 34.2426C9.11742 35.3679 7.5913 36 6 36C4.4087 36 2.88258 35.3679 1.75736 34.2426C0.632141 33.1174 0 31.5913 0 30H0Z" fill="#0ACF83"/>
<path d="M12 0L12 12H18C19.5913 12 21.1174 11.3679 22.2426 10.2426C23.3679 9.11742 24 7.5913 24 6C24 4.4087 23.3679 2.88258 22.2426 1.75736C21.1174 0.632141 19.5913 0 18 0L12 0Z" fill="#FF7262"/>
<path d="M0 6C0 7.5913 0.632141 9.11742 1.75736 10.2426C2.88258 11.3679 4.4087 12 6 12H12V0L6 0C4.4087 0 2.88258 0.632141 1.75736 1.75736C0.632141 2.88258 0 4.4087 0 6H0Z" fill="#F24E1E"/>
<path d="M0 18C0 19.5913 0.632141 21.1174 1.75736 22.2426C2.88258 23.3679 4.4087 24 6 24H12L12 12L6 12C4.4087 12 2.88258 12.6321 1.75736 13.7574C0.632141 14.8826 0 16.4087 0 18H0Z" fill="#A259FF"/>
</g>
<defs>
<clipPath id="clip0_228_12048">
<rect width="24" height="36" fill="white"/>
</clipPath>
</defs>
</svg>
