<svg width="24" height="24" viewBox="0 0 24 24" fill="none" xmlns="http://www.w3.org/2000/svg">
<path d="M7.65217 19.2H4V8.29092H7.65217V19.2ZM5.82682 6.83638C4.81663 6.83638 4 6.0211 4 5.01747C4 4.01383 4.81809 3.20001 5.82682 3.20001C6.83336 3.20001 7.65217 4.01529 7.65217 5.01747C7.65217 6.0211 6.83336 6.83638 5.82682 6.83638ZM20.8 19.2H17.2888V13.8909C17.2888 12.6247 17.2647 10.9964 15.4634 10.9964C13.6352 10.9964 13.3539 12.3753 13.3539 13.7993V19.2H9.84348V8.28292H13.2137V9.77456H13.2612C13.7301 8.91638 14.8762 8.01165 16.5854 8.01165C20.1426 8.01165 20.8 10.2727 20.8 13.2124V19.2Z" fill="white"/>
</svg>
