<svg xmlns="http://www.w3.org/2000/svg" viewBox="0 0 220 151.8"><defs><style>.cls-1{fill:#fff;}</style></defs><g id="Layer_2" data-name="Layer 2"><g id="Layer_1-2" data-name="Layer 1"><path class="cls-1" d="M54.52,9.58c28.8-16.42,59.63-11.79,83.84,14.34C143,11.08,150.88,3.47,165.74,7.8c-5,8.53-9.74,17.21-15,25.62-2,3.28-2.24,5.7-.59,9.39,15.68,35.05,13.38,68.76-8.24,100.81-1.66,2.48-3.43,4.88-5.71,8.1l-26.76-46.31L82.71,151.8C55,103.5,27.5,55.71,0,7.86c11.67-3.2,18-.66,23.68,9.33q28,48.87,56,97.74c.9,1.58,1.87,3.12,3.09,5.15,5.66-9.84,11.23-19.23,16.38-28.85.72-1.34-.2-4.06-1.13-5.7Q77.06,48.72,55.85,12C55.45,11.32,55.07,10.59,54.52,9.58Zm55,64.09c4.85-8.5,9.25-16.27,13.71-24,7.18-12.43,7.34-12.59-3.75-21.93C107.26,17.47,93.36,13.45,77,17.21Zm29.13-19.11C131.9,66.27,125.85,76.73,120,87.27a5,5,0,0,0-.24,4.06c5.47,9.83,11.13,19.53,17.22,30.1C146.25,99.15,146.62,77.62,138.61,54.56Z"/><path class="cls-1" d="M220,7c-6.95,11.83-13.25,22.87-19.9,33.7-2.29,3.73-7,4.3-10.55,2-3.68-2.38-4.7-6.24-2.42-10.4,3.66-6.68,7-13.62,11.5-19.7,2.06-2.79,6.32-4.44,9.9-5.43C211.76,6.28,215.42,7,220,7Z"/></g></g></svg>