<svg width="220" height="152" viewBox="0 0 220 152" fill="none" xmlns="http://www.w3.org/2000/svg">
<g clip-path="url(#clip0_541_8672)">
<path d="M54.52 9.58024C83.32 -6.83976 114.15 -2.20976 138.36 23.9202C143 11.0802 150.88 3.47024 165.74 7.80024C160.74 16.3302 156 25.0102 150.74 33.4202C148.74 36.7002 148.5 39.1202 150.15 42.8102C165.83 77.8602 163.53 111.57 141.91 143.62C140.25 146.1 138.48 148.5 136.2 151.72L109.44 105.41L82.71 151.8C55 103.5 27.5 55.7102 0 7.86024C11.67 4.66024 18 7.20024 23.68 17.1902C42.3467 49.7702 61.0133 82.3502 79.68 114.93C80.58 116.51 81.55 118.05 82.77 120.08C88.43 110.24 94 100.85 99.15 91.2302C99.87 89.8902 98.95 87.1702 98.02 85.5302C84.0467 60.9902 69.99 36.4802 55.85 12.0002C55.45 11.3202 55.07 10.5902 54.52 9.58024ZM109.52 73.6702C114.37 65.1702 118.77 57.4002 123.23 49.6702C130.41 37.2402 130.57 37.0802 119.48 27.7402C107.26 17.4702 93.36 13.4502 77 17.2102L109.52 73.6702ZM138.65 54.5602C131.9 66.2702 125.85 76.7302 120 87.2702C119.678 87.8924 119.49 88.5753 119.449 89.2747C119.407 89.9742 119.513 90.6745 119.76 91.3302C125.23 101.16 130.89 110.86 136.98 121.43C146.25 99.1502 146.62 77.6202 138.61 54.5602H138.65Z" fill="black"/>
<path d="M220 7.00011C213.05 18.8301 206.75 29.8701 200.1 40.7001C197.81 44.4301 193.1 45.0001 189.55 42.7001C185.87 40.3201 184.85 36.4601 187.13 32.3001C190.79 25.6201 194.13 18.6801 198.63 12.6001C200.69 9.81011 204.95 8.16011 208.53 7.17011C211.76 6.28011 215.42 7.00011 220 7.00011Z" fill="black"/>
</g>
<defs>
<clipPath id="clip0_541_8672">
<rect width="220" height="151.8" fill="white"/>
</clipPath>
</defs>
</svg>
